<?xml version="1.0" encoding="utf-8"?>
<!-- Generator: Adobe Illustrator 16.0.0, SVG Export Plug-In . SVG Version: 6.00 Build 0)  -->
<!DOCTYPE svg PUBLIC "-//W3C//DTD SVG 1.1//EN" "http://www.w3.org/Graphics/SVG/1.1/DTD/svg11.dtd">
<svg version="1.1" id="Layer_6" xmlns="http://www.w3.org/2000/svg" xmlns:xlink="http://www.w3.org/1999/xlink" x="-4px" y="0px"
     width="32px" height="32px" viewBox="-2 0 32 32" enable-background="new -2 0 32 32" xml:space="preserve">
<path d="M15.7,20.8l-4.1-5.3l3.6-4.7h-3.5L10,13.4l-1.6-2.5H5l3.4,4.7l-4.2,5.3h3.4l2.4-3.3l2.3,3.3H15.7l13-13.3   l-5.5-6.3l-1.1-1.3H9.3c-1.7,0-3.1,1.4-3.1,3.1v4h1.9l0-3.2c0-1,0.8-1.8,1.8-1.8l11,0v5.2c0,1.9,1.6,3.5,3.5,3.5h3.8L28,25.9 
      c0,1-0.8,1.8-1.8,1.8l-16.6,0c-0.9,0-1.6-0.9-1.6-1.9v-1.3H6.1v1.9c0,1.9,1.3,3.5,2.9,3.5l17.8,0c1.7,0,3.1-1.4,3.1-3.1V9l-1.3-1.5   " style="fill:white;stroke:#34c9ca;stroke-width:2"/>
</svg>